<svg width="890" height="321" viewBox="0 0 890 321" fill="none" xmlns="http://www.w3.org/2000/svg">
<path d="M1.62731 71.6965L28.3623 0.00561702L678.563 0.037528C678.563 0.037528 706.032 -0.870735 718.758 6.24928C731.024 13.1125 743.105 32.2975 743.105 32.2975L884.478 276.684C884.478 276.684 893.637 292.743 886.506 306.098C878.669 320.778 863.067 320.778 863.067 320.778H17.1638L100.624 106.903H26.6563C26.6563 106.903 11.5976 107.621 3.42595 95.4228C-3.03611 85.7765 1.62731 71.6965 1.62731 71.6965Z" fill="#2A1044"/>
<path d="M580.793 300.328H504.568C504.568 300.328 512.829 294.193 518.548 286.166C523.023 279.884 527.322 268.473 527.322 268.473L550.076 207.038C550.076 207.038 555.55 188.732 550.532 170.726C546.431 156.012 536.097 146.383 518.22 139.915L535.286 95.545H605.822C605.822 95.545 610.813 95.5451 613.009 96.4126C616.448 97.7712 618.336 100.096 618.336 100.096L636.539 127.4C636.539 127.4 640.578 132.706 641.01 136.916C641.382 140.539 638.815 146.741 638.815 146.741L580.793 300.328Z" fill="url(#paint0_linear_3730_12)"/>
<path d="M213.321 220.69L182.604 300.328H476.126C476.126 300.328 485.065 300.328 496.731 289.753C504.032 283.134 509.119 270.748 509.119 270.748L532.005 217.2C532.005 217.2 540.42 196.468 538.127 183.52C534.609 163.647 521.633 156.98 521.633 156.98L429.481 118.299C429.481 118.299 419.473 114.293 416.967 110.175C413.781 104.942 416.967 96.6828 416.967 96.6828L286.133 95.5451L281.582 114.886C281.582 114.886 277.032 131.951 280.445 139.915C283.956 148.107 291.821 151.292 291.821 151.292L415.829 205.9C415.829 205.9 424.93 209.313 424.93 213.864C424.93 220.69 415.829 220.69 415.829 220.69H213.321Z" fill="url(#paint1_linear_3730_12)"/>
<path d="M688.874 20.458H42.6695L21.0535 78.4799C21.0535 78.4799 19.7345 82.5675 21.0535 84.3147C22.4967 86.2263 26.742 86.4436 26.742 86.4436H104.104C104.104 86.4436 116.211 86.4437 121.045 93.2429C125.88 100.042 120.032 113.748 120.032 113.748L47.2202 300.328H167.814L241.764 101.234C241.764 101.234 245.487 91.2999 249.279 88.4558C254.995 84.1683 263.38 84.1683 263.38 84.1683H620.613C620.613 84.1683 625.069 84.1683 628.576 86.4436C630.745 87.8501 633.127 92.1321 633.127 92.1321L703.664 209.313C703.664 209.313 706.02 213.584 704.086 216.651C702.257 219.553 696.837 219.553 696.837 219.553H627.439L597.858 300.328H861.801C861.801 300.328 869.859 299.321 868.628 292.364C867.844 287.939 863.572 280.906 863.572 280.906L729.83 50.0378C729.83 50.0378 721.783 35.6144 715.707 28.6321C708.053 19.8357 688.874 20.458 688.874 20.458Z" fill="url(#paint2_linear_3730_12)"/>
<defs>
<linearGradient id="paint0_linear_3730_12" x1="445.409" y1="20.458" x2="445.409" y2="300.328" gradientUnits="userSpaceOnUse">
<stop stop-color="#F59E0B"/>
<stop offset="1" stop-color="#581C87"/>
</linearGradient>
<linearGradient id="paint1_linear_3730_12" x1="445.409" y1="20.458" x2="445.409" y2="300.328" gradientUnits="userSpaceOnUse">
<stop stop-color="#F59E0B"/>
<stop offset="1" stop-color="#581C87"/>
</linearGradient>
<linearGradient id="paint2_linear_3730_12" x1="445.409" y1="20.458" x2="445.409" y2="300.328" gradientUnits="userSpaceOnUse">
<stop stop-color="#F59E0B"/>
<stop offset="1" stop-color="#581C87"/>
</linearGradient>
</defs>
</svg>
